# xmcd
#
# Track frame offsets:
#	150
#	15550
#	29875
#	45950
#	60635
#	72000
#	85487
#	98587
#	112620
#	126300
#	140735
#	155167
#	167687
#	182440
#	195280
#	211395
#	225220
#	238710
#	255915
#	267842
#	279407
#	292067
#	306455
#	321000
#
# Disc length: 4430 seconds
#
# Revision: 0
# Processed by: cddbd v1.5.2PL0 Copyright (c) Steve Scherf et al.
# Submitted via: EasyCDDAExtractor 16.0.6.1
#
DISCID=4a114c18
DTITLE=Συλλογικός δίσκος - Τραγούδια του μεσοπολέμου 1
DYEAR=1992
DGENRE=Ελαφρά
TTITLE0=Μακρής Ορέστης - Το ταγκό των ρόδων [1929, διεθνές]
TTITLE1=Νικολέσκο Πάολα - Γλυκειά μου Ρεζέντα [1931, Λόλα Βώττη]
TTITLE2=Αττίκ - Είδα μάτια [1915, Αττίκ]
TTITLE3=Βιτάλης Γιώργος - Παλιά ταβέρνα [1931, Γ. Βιτάλης-Σπ. Μελάς/Αλ. Λιδωρί
TTITLE3=κης]
TTITLE4=Επιτροπάκης Γιώργος - Αστέρω (Νυκτωδία)[1928, Δ. Ρόδιος-Π. Νιρβάνας]
TTITLE5=Σαβαρής Γιώργος - Της Κολομπίνας το φιλί [1923, Αντ. Βώττης]
TTITLE6=Πετρόπουλος Κωνσταντίνος - Ο γερο Δήμος πέθανε [1923, Παύλος Καρρέρ-Αρ
TTITLE6=ιστ. Βαλαωρίτης]
TTITLE7=Δελένδας Αντώνης - Αν βγουν αλήθεια [1926, Αττίκ]
TTITLE8=Ελβίρα ντε Ιντάλγκο - Ο μπαρμπα Γιάννης ο κανατάς
TTITLE9=Κούρμη Μαρίκα-Καμβύσης Γιώργος - Η παλιά στρατώνα [1929, Γ. Βιτάλης]
TTITLE10=Κριωνάς Δημήτρης-χορωδία-μαντολινάτα - Στης νύχτας τη σιγαλιά (Οι ξεν
TTITLE10=ύχτηδες)[1920, Ερμής Πόγγης-Αιμ. Δραγάτσης]
TTITLE11=Παπαδάκη Ελένη - Γιατί φταίει η γυναίκα [1934, Χρ. Χαιρόπουλος]
TTITLE12=Μακρής Ορέστης - Ανάμνησις Σμύρνης [γράφτ. 1914, Τιμ. Ξανθόπουλος]
TTITLE13=Μυλωνάς Κωνσταντίνος - Το ταγκό της θεατρίνας [1932, Χρ. Χαιρόπουλος]
TTITLE14=Ελληνική Εστουδιαντίνα - Ευζωνάκι γοργό [1918, ηχ. στην Σμύρνη]
TTITLE15=Φραγκιά Νουνούκα-Σαλίγκαρος Σπύρος - Μπέμπα μου, μπέμπα μου [1934, Ν.
TTITLE15=Χατζηαποστόλου]
TTITLE16=Δελένδας Αντώνης - Κι όμως, κι όμως [1928, Αττίκ]
TTITLE17=Δημητριάδης Τέτος - Είμαι ένας τρελλός καβαλλιέρος [αμερικ. του 1929]
TTITLE18=Στυλιανόπουλος Ιωάννης - Καλέ πατώνεις [1924, Γρ. Κωνσταντινίδης-Αιμ.
TTITLE18=Δραγάτσης]
TTITLE19=Ιατρίδου Σωτηρία - Εγώ είμαι η νέα γυναίκα [γράφτ. 1908, Θεόφρ. Σακελ
TTITLE19=λαρίδης]
TTITLE20=Γούναρης Νίκος - Μιά καινούργια τρέλλα [1937, Gay-Furber, απ. Πωλ Μεν
TTITLE20=εστρέλ]
TTITLE21=Βέμπο Σοφία - Κοντά στο Νείλο (Φεριχά)[1939, Μ. Σουγιούλ-Κ. Κοφινιώτη
TTITLE21=ς]
TTITLE22=Κυριακός Πέτρος-Δημητριάδης Τέτος - Άρτι αφιχθείς εξ Αμερικής [1928, 
TTITLE22=Μ. Κατριβάνος]
TTITLE23=Άνευ ερμηνευτού - Η καρδιά μου πονεί για σάς [1918, πόλκα Θεόφρ. Σακε
TTITLE23=λλαρίδη, ορχ.]
EXTD=
EXTT0=
EXTT1=
EXTT2=
EXTT3=
EXTT4=
EXTT5=
EXTT6=
EXTT7=
EXTT8=
EXTT9=
EXTT10=
EXTT11=
EXTT12=
EXTT13=
EXTT14=
EXTT15=
EXTT16=
EXTT17=
EXTT18=
EXTT19=
EXTT20=
EXTT21=
EXTT22=
EXTT23=
PLAYORDER=
